<mxfile host="app.diagrams.net" modified="2021-05-26T06:23:18.309Z" agent="5.0 (Macintosh; Intel Mac OS X 10_15_0) AppleWebKit/537.36 (KHTML, like Gecko) Chrome/90.0.4430.85 Safari/537.36" etag="XRlntNVrUNfSq_VNZjaw" version="14.7.1" type="github">
  <diagram id="cR3y5OYTiJfY-toKMc1g" name="第 1 页">
    <mxGraphModel dx="946" dy="556" grid="1" gridSize="10" guides="1" tooltips="1" connect="1" arrows="1" fold="1" page="1" pageScale="1" pageWidth="827" pageHeight="1169" background="#ffffff" math="0" shadow="0">
      <root>
        <mxCell id="0" />
        <mxCell id="1" parent="0" />
        <mxCell id="T_7q3NXANAVSDH98pPFv-3" value="" style="shape=curlyBracket;whiteSpace=wrap;html=1;rounded=1;" vertex="1" parent="1">
          <mxGeometry x="151" y="270" width="20" height="120" as="geometry" />
        </mxCell>
        <mxCell id="T_7q3NXANAVSDH98pPFv-4" value="" style="endArrow=block;endFill=1;endSize=12;html=1;" edge="1" parent="1">
          <mxGeometry width="160" relative="1" as="geometry">
            <mxPoint x="377.5" y="200" as="sourcePoint" />
            <mxPoint x="457.5" y="200" as="targetPoint" />
          </mxGeometry>
        </mxCell>
        <mxCell id="T_7q3NXANAVSDH98pPFv-14" value="" style="shape=curlyBracket;whiteSpace=wrap;html=1;rounded=1;" vertex="1" parent="1">
          <mxGeometry x="50" y="40" width="20" height="40" as="geometry" />
        </mxCell>
        <mxCell id="T_7q3NXANAVSDH98pPFv-24" value="" style="shape=image;html=1;verticalAlign=top;verticalLabelPosition=bottom;labelBackgroundColor=#ffffff;imageAspect=0;aspect=fixed;image=https://cdn0.iconfinder.com/data/icons/elysium-icons/24/Bracket_Left.png" vertex="1" parent="1">
          <mxGeometry x="50" y="110" width="24" height="24" as="geometry" />
        </mxCell>
        <mxCell id="T_7q3NXANAVSDH98pPFv-25" value="" style="shape=image;html=1;verticalAlign=top;verticalLabelPosition=bottom;labelBackgroundColor=#ffffff;imageAspect=0;aspect=fixed;image=https://cdn0.iconfinder.com/data/icons/elysium-icons/24/Bracket_Right.png" vertex="1" parent="1">
          <mxGeometry x="81" y="110" width="24" height="24" as="geometry" />
        </mxCell>
        <mxCell id="T_7q3NXANAVSDH98pPFv-26" value="map结构" style="rounded=1;whiteSpace=wrap;html=1;" vertex="1" parent="1">
          <mxGeometry x="120" y="40" width="87.5" height="40" as="geometry" />
        </mxCell>
        <mxCell id="T_7q3NXANAVSDH98pPFv-27" value="set结构" style="rounded=1;whiteSpace=wrap;html=1;" vertex="1" parent="1">
          <mxGeometry x="119.25" y="102" width="87.5" height="40" as="geometry" />
        </mxCell>
        <mxCell id="T_7q3NXANAVSDH98pPFv-28" value="indices" style="rounded=1;whiteSpace=wrap;html=1;" vertex="1" parent="1">
          <mxGeometry x="63.5" y="310" width="87.5" height="40" as="geometry" />
        </mxCell>
        <mxCell id="T_7q3NXANAVSDH98pPFv-29" value="&quot;byUser&quot;" style="rounded=1;whiteSpace=wrap;html=1;" vertex="1" parent="1">
          <mxGeometry x="171" y="250" width="87.5" height="40" as="geometry" />
        </mxCell>
        <mxCell id="T_7q3NXANAVSDH98pPFv-30" value="" style="shape=curlyBracket;whiteSpace=wrap;html=1;rounded=1;" vertex="1" parent="1">
          <mxGeometry x="258.5" y="200" width="20" height="150" as="geometry" />
        </mxCell>
        <mxCell id="T_7q3NXANAVSDH98pPFv-32" value="&quot;zhangsan&quot;" style="rounded=1;whiteSpace=wrap;html=1;" vertex="1" parent="1">
          <mxGeometry x="290" y="180" width="87.5" height="40" as="geometry" />
        </mxCell>
        <mxCell id="T_7q3NXANAVSDH98pPFv-33" value="&quot;lisi&quot;" style="rounded=1;whiteSpace=wrap;html=1;" vertex="1" parent="1">
          <mxGeometry x="290" y="255" width="87.5" height="40" as="geometry" />
        </mxCell>
        <mxCell id="T_7q3NXANAVSDH98pPFv-34" value="&quot;wangwu&quot;" style="rounded=1;whiteSpace=wrap;html=1;" vertex="1" parent="1">
          <mxGeometry x="290" y="330" width="87.5" height="40" as="geometry" />
        </mxCell>
        <mxCell id="T_7q3NXANAVSDH98pPFv-36" value="&lt;b&gt;...&lt;/b&gt;" style="text;html=1;align=center;verticalAlign=middle;resizable=0;points=[];autosize=1;strokeColor=none;" vertex="1" parent="1">
          <mxGeometry x="185" y="380" width="30" height="20" as="geometry" />
        </mxCell>
        <mxCell id="T_7q3NXANAVSDH98pPFv-37" value="" style="endArrow=block;endFill=1;endSize=12;html=1;" edge="1" parent="1">
          <mxGeometry width="160" relative="1" as="geometry">
            <mxPoint x="377.5" y="274.5" as="sourcePoint" />
            <mxPoint x="457.5" y="274.5" as="targetPoint" />
          </mxGeometry>
        </mxCell>
        <mxCell id="T_7q3NXANAVSDH98pPFv-39" value="" style="endArrow=block;endFill=1;endSize=12;html=1;" edge="1" parent="1">
          <mxGeometry width="160" relative="1" as="geometry">
            <mxPoint x="377.5" y="349.5" as="sourcePoint" />
            <mxPoint x="457.5" y="349.5" as="targetPoint" />
          </mxGeometry>
        </mxCell>
        <mxCell id="T_7q3NXANAVSDH98pPFv-41" value="" style="shape=image;html=1;verticalAlign=top;verticalLabelPosition=bottom;labelBackgroundColor=#ffffff;imageAspect=0;aspect=fixed;image=https://cdn0.iconfinder.com/data/icons/elysium-icons/24/Bracket_Left.png" vertex="1" parent="1">
          <mxGeometry x="470" y="188" width="24" height="24" as="geometry" />
        </mxCell>
        <mxCell id="T_7q3NXANAVSDH98pPFv-42" value="" style="shape=image;html=1;verticalAlign=top;verticalLabelPosition=bottom;labelBackgroundColor=#ffffff;imageAspect=0;aspect=fixed;image=https://cdn0.iconfinder.com/data/icons/elysium-icons/24/Bracket_Right.png" vertex="1" parent="1">
          <mxGeometry x="689" y="188" width="24" height="24" as="geometry" />
        </mxCell>
        <mxCell id="T_7q3NXANAVSDH98pPFv-43" value="&quot;one&quot;" style="rounded=1;whiteSpace=wrap;html=1;" vertex="1" parent="1">
          <mxGeometry x="494" y="180" width="87.5" height="40" as="geometry" />
        </mxCell>
        <mxCell id="T_7q3NXANAVSDH98pPFv-44" value="&quot;tre&quot;" style="rounded=1;whiteSpace=wrap;html=1;" vertex="1" parent="1">
          <mxGeometry x="600" y="180" width="87.5" height="40" as="geometry" />
        </mxCell>
        <mxCell id="T_7q3NXANAVSDH98pPFv-47" value="" style="shape=image;html=1;verticalAlign=top;verticalLabelPosition=bottom;labelBackgroundColor=#ffffff;imageAspect=0;aspect=fixed;image=https://cdn0.iconfinder.com/data/icons/elysium-icons/24/Bracket_Left.png" vertex="1" parent="1">
          <mxGeometry x="470" y="263" width="24" height="24" as="geometry" />
        </mxCell>
        <mxCell id="T_7q3NXANAVSDH98pPFv-48" value="&quot;one&quot;" style="rounded=1;whiteSpace=wrap;html=1;" vertex="1" parent="1">
          <mxGeometry x="494" y="255" width="87.5" height="40" as="geometry" />
        </mxCell>
        <mxCell id="T_7q3NXANAVSDH98pPFv-49" value="&quot;two&quot;" style="rounded=1;whiteSpace=wrap;html=1;" vertex="1" parent="1">
          <mxGeometry x="600" y="255" width="87.5" height="40" as="geometry" />
        </mxCell>
        <mxCell id="T_7q3NXANAVSDH98pPFv-50" value="" style="shape=image;html=1;verticalAlign=top;verticalLabelPosition=bottom;labelBackgroundColor=#ffffff;imageAspect=0;aspect=fixed;image=https://cdn0.iconfinder.com/data/icons/elysium-icons/24/Bracket_Right.png" vertex="1" parent="1">
          <mxGeometry x="689" y="263" width="24" height="24" as="geometry" />
        </mxCell>
        <mxCell id="T_7q3NXANAVSDH98pPFv-51" value="" style="shape=image;html=1;verticalAlign=top;verticalLabelPosition=bottom;labelBackgroundColor=#ffffff;imageAspect=0;aspect=fixed;image=https://cdn0.iconfinder.com/data/icons/elysium-icons/24/Bracket_Left.png" vertex="1" parent="1">
          <mxGeometry x="470" y="338" width="24" height="24" as="geometry" />
        </mxCell>
        <mxCell id="T_7q3NXANAVSDH98pPFv-52" value="&quot;two&quot;" style="rounded=1;whiteSpace=wrap;html=1;" vertex="1" parent="1">
          <mxGeometry x="494" y="330" width="87.5" height="40" as="geometry" />
        </mxCell>
        <mxCell id="T_7q3NXANAVSDH98pPFv-53" value="&quot;tre&quot;" style="rounded=1;whiteSpace=wrap;html=1;" vertex="1" parent="1">
          <mxGeometry x="600" y="330" width="87.5" height="40" as="geometry" />
        </mxCell>
        <mxCell id="T_7q3NXANAVSDH98pPFv-54" value="" style="shape=image;html=1;verticalAlign=top;verticalLabelPosition=bottom;labelBackgroundColor=#ffffff;imageAspect=0;aspect=fixed;image=https://cdn0.iconfinder.com/data/icons/elysium-icons/24/Bracket_Right.png" vertex="1" parent="1">
          <mxGeometry x="689" y="338" width="24" height="24" as="geometry" />
        </mxCell>
        <mxCell id="T_7q3NXANAVSDH98pPFv-60" value="&quot;byUser&quot;" style="rounded=1;whiteSpace=wrap;html=1;" vertex="1" parent="1">
          <mxGeometry x="63.5" y="510" width="87.5" height="40" as="geometry" />
        </mxCell>
        <mxCell id="T_7q3NXANAVSDH98pPFv-61" value="" style="shape=curlyBracket;whiteSpace=wrap;html=1;rounded=1;" vertex="1" parent="1">
          <mxGeometry x="151" y="460" width="20" height="150" as="geometry" />
        </mxCell>
        <mxCell id="T_7q3NXANAVSDH98pPFv-62" value="&quot;zhangsan&quot;" style="rounded=1;whiteSpace=wrap;html=1;" vertex="1" parent="1">
          <mxGeometry x="182.5" y="440" width="87.5" height="40" as="geometry" />
        </mxCell>
        <mxCell id="T_7q3NXANAVSDH98pPFv-63" value="" style="endArrow=block;endFill=1;endSize=12;html=1;" edge="1" parent="1">
          <mxGeometry width="160" relative="1" as="geometry">
            <mxPoint x="270" y="460" as="sourcePoint" />
            <mxPoint x="350" y="460" as="targetPoint" />
          </mxGeometry>
        </mxCell>
        <mxCell id="T_7q3NXANAVSDH98pPFv-64" value="&quot;lisi&quot;" style="rounded=1;whiteSpace=wrap;html=1;" vertex="1" parent="1">
          <mxGeometry x="182.5" y="515" width="87.5" height="40" as="geometry" />
        </mxCell>
        <mxCell id="T_7q3NXANAVSDH98pPFv-65" value="" style="endArrow=block;endFill=1;endSize=12;html=1;" edge="1" parent="1">
          <mxGeometry width="160" relative="1" as="geometry">
            <mxPoint x="270" y="534.5" as="sourcePoint" />
            <mxPoint x="350" y="534.5" as="targetPoint" />
          </mxGeometry>
        </mxCell>
        <mxCell id="T_7q3NXANAVSDH98pPFv-66" value="&quot;wangwu&quot;" style="rounded=1;whiteSpace=wrap;html=1;" vertex="1" parent="1">
          <mxGeometry x="182.5" y="590" width="87.5" height="40" as="geometry" />
        </mxCell>
        <mxCell id="T_7q3NXANAVSDH98pPFv-67" value="" style="endArrow=block;endFill=1;endSize=12;html=1;" edge="1" parent="1">
          <mxGeometry width="160" relative="1" as="geometry">
            <mxPoint x="270" y="609.5" as="sourcePoint" />
            <mxPoint x="350" y="609.5" as="targetPoint" />
          </mxGeometry>
        </mxCell>
        <mxCell id="T_7q3NXANAVSDH98pPFv-68" value="pod1" style="ellipse;whiteSpace=wrap;html=1;" vertex="1" parent="1">
          <mxGeometry x="366" y="430" width="96" height="60" as="geometry" />
        </mxCell>
        <mxCell id="T_7q3NXANAVSDH98pPFv-69" value="pod2" style="ellipse;whiteSpace=wrap;html=1;" vertex="1" parent="1">
          <mxGeometry x="366" y="505" width="96" height="60" as="geometry" />
        </mxCell>
        <mxCell id="T_7q3NXANAVSDH98pPFv-70" value="pod3" style="ellipse;whiteSpace=wrap;html=1;" vertex="1" parent="1">
          <mxGeometry x="366" y="580" width="96" height="60" as="geometry" />
        </mxCell>
      </root>
    </mxGraphModel>
  </diagram>
</mxfile>
